<?xml version="1.0" encoding="UTF-8" standalone="no"?><svg xmlns="http://www.w3.org/2000/svg" xmlns:xlink="http://www.w3.org/1999/xlink" contentStyleType="text/css" height="770px" preserveAspectRatio="none" style="width:1342px;height:770px;background:#FFFFFF;" version="1.1" viewBox="0 0 1342 770" width="1342px" zoomAndPan="magnify"><defs/><g><!--MD5=[95bb972d0930c815d3d28e3ce51f39e4]
cluster Logical Architecture--><g id="cluster_Logical Architecture"><path d="M8.5,6.602 L148.5,6.602 A3.75,3.75 0 0 1 151,9.102 L158,31.6699 L1332.5,31.6699 A2.5,2.5 0 0 1 1335,34.1699 L1335,761.102 A2.5,2.5 0 0 1 1332.5,763.602 L8.5,763.602 A2.5,2.5 0 0 1 6,761.102 L6,9.102 A2.5,2.5 0 0 1 8.5,6.602 " fill="none" style="stroke:#000000;stroke-width:1.5;"/><line style="stroke:#000000;stroke-width:1.5;" x1="6" x2="158" y1="31.6699" y2="31.6699"/><text fill="#000000" font-family="sans-serif" font-size="14" font-weight="bold" lengthAdjust="spacing" textLength="139" x="10" y="23.5679">Logical Architecture</text></g><!--MD5=[03f4be12c1ddb773a4fc42c0a42c009e]
cluster Log in--><g id="cluster_Log in"><path d="M470.5,627.602 L514.5,627.602 A3.75,3.75 0 0 1 517,630.102 L524,652.6699 L953.5,652.6699 A2.5,2.5 0 0 1 956,655.1699 L956,737.102 A2.5,2.5 0 0 1 953.5,739.602 L470.5,739.602 A2.5,2.5 0 0 1 468,737.102 L468,630.102 A2.5,2.5 0 0 1 470.5,627.602 " fill="none" style="stroke:#000000;stroke-width:1.5;"/><line style="stroke:#000000;stroke-width:1.5;" x1="468" x2="524" y1="652.6699" y2="652.6699"/><text fill="#000000" font-family="sans-serif" font-size="14" font-weight="bold" lengthAdjust="spacing" textLength="43" x="472" y="644.5679">Log in</text></g><!--MD5=[13d7899ea3604682320811ddebea1115]
cluster External Services--><g id="cluster_External Services"><path d="M1096.5,69.602 L1214.5,69.602 A3.75,3.75 0 0 1 1217,72.102 L1224,94.6699 L1308.5,94.6699 A2.5,2.5 0 0 1 1311,97.1699 L1311,458.102 A2.5,2.5 0 0 1 1308.5,460.602 L1096.5,460.602 A2.5,2.5 0 0 1 1094,458.102 L1094,72.102 A2.5,2.5 0 0 1 1096.5,69.602 " fill="none" style="stroke:#000000;stroke-width:1.5;"/><line style="stroke:#000000;stroke-width:1.5;" x1="1094" x2="1224" y1="94.6699" y2="94.6699"/><text fill="#000000" font-family="sans-serif" font-size="14" font-weight="bold" lengthAdjust="spacing" textLength="117" x="1098" y="86.5679">External Services</text></g><!--MD5=[b1ba588ec95fec2697a6a100a3b7d3ce]
cluster Home--><g id="cluster_Home"><path d="M471.5,491.602 L514.5,491.602 A3.75,3.75 0 0 1 517,494.102 L524,516.6699 L952.5,516.6699 A2.5,2.5 0 0 1 955,519.1699 L955,601.102 A2.5,2.5 0 0 1 952.5,603.602 L471.5,603.602 A2.5,2.5 0 0 1 469,601.102 L469,494.102 A2.5,2.5 0 0 1 471.5,491.602 " fill="none" style="stroke:#000000;stroke-width:1.5;"/><line style="stroke:#000000;stroke-width:1.5;" x1="469" x2="524" y1="516.6699" y2="516.6699"/><text fill="#000000" font-family="sans-serif" font-size="14" font-weight="bold" lengthAdjust="spacing" textLength="42" x="473" y="508.5679">Home</text></g><!--MD5=[7f01ebce6f1737cccda5816e3ae2b56e]
cluster Profile, Reviews and Achievements--><g id="cluster_Profile, Reviews and Achievements"><path d="M32.5,355.602 L274.5,355.602 A3.75,3.75 0 0 1 277,358.102 L284,380.6699 L1063.5,380.6699 A2.5,2.5 0 0 1 1066,383.1699 L1066,465.102 A2.5,2.5 0 0 1 1063.5,467.602 L32.5,467.602 A2.5,2.5 0 0 1 30,465.102 L30,358.102 A2.5,2.5 0 0 1 32.5,355.602 " fill="none" style="stroke:#000000;stroke-width:1.5;"/><line style="stroke:#000000;stroke-width:1.5;" x1="30" x2="284" y1="380.6699" y2="380.6699"/><text fill="#000000" font-family="sans-serif" font-size="14" font-weight="bold" lengthAdjust="spacing" textLength="241" x="34" y="372.5679">Profile, Reviews and Achievements</text></g><!--MD5=[747e4e80afe15e70a376f7b7e768d1fd]
cluster Location Info--><g id="cluster_Location Info"><path d="M105.5,219.602 L198.5,219.602 A3.75,3.75 0 0 1 201,222.102 L208,244.6699 L990.5,244.6699 A2.5,2.5 0 0 1 993,247.1699 L993,329.102 A2.5,2.5 0 0 1 990.5,331.602 L105.5,331.602 A2.5,2.5 0 0 1 103,329.102 L103,222.102 A2.5,2.5 0 0 1 105.5,219.602 " fill="none" style="stroke:#000000;stroke-width:1.5;"/><line style="stroke:#000000;stroke-width:1.5;" x1="103" x2="208" y1="244.6699" y2="244.6699"/><text fill="#000000" font-family="sans-serif" font-size="14" font-weight="bold" lengthAdjust="spacing" textLength="92" x="107" y="236.5679">Location Info</text></g><!--MD5=[e73f0093e85512628147384714bbf7dd]
cluster Search--><g id="cluster_Search"><path d="M126,52.602 L173,52.602 A3.75,3.75 0 0 1 175.5,55.102 L182.5,77.6699 L970,77.6699 A2.5,2.5 0 0 1 972.5,80.1699 L972.5,162.102 A2.5,2.5 0 0 1 970,164.602 L126,164.602 A2.5,2.5 0 0 1 123.5,162.102 L123.5,55.102 A2.5,2.5 0 0 1 126,52.602 " fill="none" style="stroke:#000000;stroke-width:1.5;"/><line style="stroke:#000000;stroke-width:1.5;" x1="123.5" x2="182.5" y1="77.6699" y2="77.6699"/><text fill="#000000" font-family="sans-serif" font-size="14" font-weight="bold" lengthAdjust="spacing" textLength="46" x="127.5" y="69.5679">Search</text></g><path d="M486.5,665.532 L547.5,665.532 A3.75,3.75 0 0 1 550,668.032 L557,690.5999 L561.5,690.5999 A2.5,2.5 0 0 1 564,693.0999 L564,721.1678 A2.5,2.5 0 0 1 561.5,723.6678 L486.5,723.6678 A2.5,2.5 0 0 1 484,721.1678 L484,668.032 A2.5,2.5 0 0 1 486.5,665.532 " fill="#F1F1F1" style="stroke:#181818;stroke-width:0.5;"/><line style="stroke:#181818;stroke-width:0.5;" x1="484" x2="557" y1="690.5999" y2="690.5999"/><text fill="#000000" font-family="sans-serif" font-size="14" lengthAdjust="spacing" textLength="60" x="488" y="682.4979">Log in UI</text><path d="M842.5,665.532 L923.5,665.532 A3.75,3.75 0 0 1 926,668.032 L933,690.5999 L937.5,690.5999 A2.5,2.5 0 0 1 940,693.0999 L940,721.1678 A2.5,2.5 0 0 1 937.5,723.6678 L842.5,723.6678 A2.5,2.5 0 0 1 840,721.1678 L840,668.032 A2.5,2.5 0 0 1 842.5,665.532 " fill="#F1F1F1" style="stroke:#181818;stroke-width:0.5;"/><line style="stroke:#181818;stroke-width:0.5;" x1="840" x2="933" y1="690.5999" y2="690.5999"/><text fill="#000000" font-family="sans-serif" font-size="14" lengthAdjust="spacing" textLength="80" x="844" y="682.4979">Log in Logic</text><path d="M1166.5,386.532 L1224.5,386.532 A3.75,3.75 0 0 1 1227,389.032 L1234,411.5999 L1238.5,411.5999 A2.5,2.5 0 0 1 1241,414.0999 L1241,442.1678 A2.5,2.5 0 0 1 1238.5,444.6678 L1166.5,444.6678 A2.5,2.5 0 0 1 1164,442.1678 L1164,389.032 A2.5,2.5 0 0 1 1166.5,386.532 " fill="#F1F1F1" style="stroke:#181818;stroke-width:0.5;"/><line style="stroke:#181818;stroke-width:0.5;" x1="1164" x2="1234" y1="411.5999" y2="411.5999"/><text fill="#000000" font-family="sans-serif" font-size="14" lengthAdjust="spacing" textLength="57" x="1168" y="403.4979">Firebase</text><path d="M1112.5,293.532 L1278.5,293.532 A3.75,3.75 0 0 1 1281,296.032 L1288,318.5999 L1292.5,318.5999 A2.5,2.5 0 0 1 1295,321.0999 L1295,349.1678 A2.5,2.5 0 0 1 1292.5,351.6678 L1112.5,351.6678 A2.5,2.5 0 0 1 1110,349.1678 L1110,296.032 A2.5,2.5 0 0 1 1112.5,293.532 " fill="#F1F1F1" style="stroke:#181818;stroke-width:0.5;"/><line style="stroke:#181818;stroke-width:0.5;" x1="1110" x2="1288" y1="318.5999" y2="318.5999"/><text fill="#000000" font-family="sans-serif" font-size="14" lengthAdjust="spacing" textLength="165" x="1114" y="310.4979">Open Street Map Search</text><path d="M1159,200.532 L1232,200.532 A3.75,3.75 0 0 1 1234.5,203.032 L1241.5,225.5999 L1246,225.5999 A2.5,2.5 0 0 1 1248.5,228.0999 L1248.5,256.1678 A2.5,2.5 0 0 1 1246,258.6678 L1159,258.6678 A2.5,2.5 0 0 1 1156.5,256.1678 L1156.5,203.032 A2.5,2.5 0 0 1 1159,200.532 " fill="#F1F1F1" style="stroke:#181818;stroke-width:0.5;"/><line style="stroke:#181818;stroke-width:0.5;" x1="1156.5" x2="1241.5" y1="225.5999" y2="225.5999"/><text fill="#000000" font-family="sans-serif" font-size="14" lengthAdjust="spacing" textLength="72" x="1160.5" y="217.4979">Geocoding</text><path d="M1178.5,107.532 L1212.5,107.532 A3.75,3.75 0 0 1 1215,110.032 L1222,132.5999 L1226.5,132.5999 A2.5,2.5 0 0 1 1229,135.0999 L1229,163.1678 A2.5,2.5 0 0 1 1226.5,165.6678 L1178.5,165.6678 A2.5,2.5 0 0 1 1176,163.1678 L1176,110.032 A2.5,2.5 0 0 1 1178.5,107.532 " fill="#F1F1F1" style="stroke:#181818;stroke-width:0.5;"/><line style="stroke:#181818;stroke-width:0.5;" x1="1176" x2="1222" y1="132.5999" y2="132.5999"/><text fill="#000000" font-family="sans-serif" font-size="14" lengthAdjust="spacing" textLength="33" x="1180" y="124.4979">STCP</text><path d="M487.5,529.532 L546.5,529.532 A3.75,3.75 0 0 1 549,532.032 L556,554.5999 L560.5,554.5999 A2.5,2.5 0 0 1 563,557.0999 L563,585.1678 A2.5,2.5 0 0 1 560.5,587.6678 L487.5,587.6678 A2.5,2.5 0 0 1 485,585.1678 L485,532.032 A2.5,2.5 0 0 1 487.5,529.532 " fill="#F1F1F1" style="stroke:#181818;stroke-width:0.5;"/><line style="stroke:#181818;stroke-width:0.5;" x1="485" x2="556" y1="554.5999" y2="554.5999"/><text fill="#000000" font-family="sans-serif" font-size="14" lengthAdjust="spacing" textLength="58" x="489" y="546.4979">Home UI</text><path d="M843.5,529.532 L922.5,529.532 A3.75,3.75 0 0 1 925,532.032 L932,554.5999 L936.5,554.5999 A2.5,2.5 0 0 1 939,557.0999 L939,585.1678 A2.5,2.5 0 0 1 936.5,587.6678 L843.5,587.6678 A2.5,2.5 0 0 1 841,585.1678 L841,532.032 A2.5,2.5 0 0 1 843.5,529.532 " fill="#F1F1F1" style="stroke:#181818;stroke-width:0.5;"/><line style="stroke:#181818;stroke-width:0.5;" x1="841" x2="932" y1="554.5999" y2="554.5999"/><text fill="#000000" font-family="sans-serif" font-size="14" lengthAdjust="spacing" textLength="78" x="845" y="546.4979">Home Logic</text><path d="M48.5,393.532 L301.5,393.532 A3.75,3.75 0 0 1 304,396.032 L311,418.5999 L315.5,418.5999 A2.5,2.5 0 0 1 318,421.0999 L318,449.1678 A2.5,2.5 0 0 1 315.5,451.6678 L48.5,451.6678 A2.5,2.5 0 0 1 46,449.1678 L46,396.032 A2.5,2.5 0 0 1 48.5,393.532 " fill="#F1F1F1" style="stroke:#181818;stroke-width:0.5;"/><line style="stroke:#181818;stroke-width:0.5;" x1="46" x2="311" y1="418.5999" y2="418.5999"/><text fill="#000000" font-family="sans-serif" font-size="14" lengthAdjust="spacing" textLength="252" x="50" y="410.4979">Profile, Reviews and Achievements UI</text><path d="M380.5,393.532 L653.5,393.532 A3.75,3.75 0 0 1 656,396.032 L663,418.5999 L667.5,418.5999 A2.5,2.5 0 0 1 670,421.0999 L670,449.1678 A2.5,2.5 0 0 1 667.5,451.6678 L380.5,451.6678 A2.5,2.5 0 0 1 378,449.1678 L378,396.032 A2.5,2.5 0 0 1 380.5,393.532 " fill="#F1F1F1" style="stroke:#181818;stroke-width:0.5;"/><line style="stroke:#181818;stroke-width:0.5;" x1="378" x2="663" y1="418.5999" y2="418.5999"/><text fill="#000000" font-family="sans-serif" font-size="14" lengthAdjust="spacing" textLength="272" x="382" y="410.4979">Profile, Reviews and Achievements Logic</text><path d="M732.5,393.532 L1033.5,393.532 A3.75,3.75 0 0 1 1036,396.032 L1043,418.5999 L1047.5,418.5999 A2.5,2.5 0 0 1 1050,421.0999 L1050,449.1678 A2.5,2.5 0 0 1 1047.5,451.6678 L732.5,451.6678 A2.5,2.5 0 0 1 730,449.1678 L730,396.032 A2.5,2.5 0 0 1 732.5,393.532 " fill="#F1F1F1" style="stroke:#181818;stroke-width:0.5;"/><line style="stroke:#181818;stroke-width:0.5;" x1="730" x2="1043" y1="418.5999" y2="418.5999"/><text fill="#000000" font-family="sans-serif" font-size="14" lengthAdjust="spacing" textLength="300" x="734" y="410.4979">Profile, Reviews and Achievements Database</text><path d="M121.5,257.532 L228.5,257.532 A3.75,3.75 0 0 1 231,260.032 L238,282.5999 L242.5,282.5999 A2.5,2.5 0 0 1 245,285.0999 L245,313.1678 A2.5,2.5 0 0 1 242.5,315.6678 L121.5,315.6678 A2.5,2.5 0 0 1 119,313.1678 L119,260.032 A2.5,2.5 0 0 1 121.5,257.532 " fill="#F1F1F1" style="stroke:#181818;stroke-width:0.5;"/><line style="stroke:#181818;stroke-width:0.5;" x1="119" x2="238" y1="282.5999" y2="282.5999"/><text fill="#000000" font-family="sans-serif" font-size="14" lengthAdjust="spacing" textLength="106" x="123" y="274.4979">Location Info UI</text><path d="M453.5,257.532 L580.5,257.532 A3.75,3.75 0 0 1 583,260.032 L590,282.5999 L594.5,282.5999 A2.5,2.5 0 0 1 597,285.0999 L597,313.1678 A2.5,2.5 0 0 1 594.5,315.6678 L453.5,315.6678 A2.5,2.5 0 0 1 451,313.1678 L451,260.032 A2.5,2.5 0 0 1 453.5,257.532 " fill="#F1F1F1" style="stroke:#181818;stroke-width:0.5;"/><line style="stroke:#181818;stroke-width:0.5;" x1="451" x2="590" y1="282.5999" y2="282.5999"/><text fill="#000000" font-family="sans-serif" font-size="14" lengthAdjust="spacing" textLength="126" x="455" y="274.4979">Location Info Logic</text><path d="M805.5,257.532 L960.5,257.532 A3.75,3.75 0 0 1 963,260.032 L970,282.5999 L974.5,282.5999 A2.5,2.5 0 0 1 977,285.0999 L977,313.1678 A2.5,2.5 0 0 1 974.5,315.6678 L805.5,315.6678 A2.5,2.5 0 0 1 803,313.1678 L803,260.032 A2.5,2.5 0 0 1 805.5,257.532 " fill="#F1F1F1" style="stroke:#181818;stroke-width:0.5;"/><line style="stroke:#181818;stroke-width:0.5;" x1="803" x2="970" y1="282.5999" y2="282.5999"/><text fill="#000000" font-family="sans-serif" font-size="14" lengthAdjust="spacing" textLength="154" x="807" y="274.4979">Location Info Database</text><path d="M142,90.532 L208,90.532 A3.75,3.75 0 0 1 210.5,93.032 L217.5,115.5999 L222,115.5999 A2.5,2.5 0 0 1 224.5,118.0999 L224.5,146.1678 A2.5,2.5 0 0 1 222,148.6678 L142,148.6678 A2.5,2.5 0 0 1 139.5,146.1678 L139.5,93.032 A2.5,2.5 0 0 1 142,90.532 " fill="#F1F1F1" style="stroke:#181818;stroke-width:0.5;"/><line style="stroke:#181818;stroke-width:0.5;" x1="139.5" x2="217.5" y1="115.5999" y2="115.5999"/><text fill="#000000" font-family="sans-serif" font-size="14" lengthAdjust="spacing" textLength="65" x="143.5" y="107.4979">Search UI</text><path d="M474,90.532 L560,90.532 A3.75,3.75 0 0 1 562.5,93.032 L569.5,115.5999 L574,115.5999 A2.5,2.5 0 0 1 576.5,118.0999 L576.5,146.1678 A2.5,2.5 0 0 1 574,148.6678 L474,148.6678 A2.5,2.5 0 0 1 471.5,146.1678 L471.5,93.032 A2.5,2.5 0 0 1 474,90.532 " fill="#F1F1F1" style="stroke:#181818;stroke-width:0.5;"/><line style="stroke:#181818;stroke-width:0.5;" x1="471.5" x2="569.5" y1="115.5999" y2="115.5999"/><text fill="#000000" font-family="sans-serif" font-size="14" lengthAdjust="spacing" textLength="85" x="475.5" y="107.4979">Search Logic</text><path d="M826,90.532 L940,90.532 A3.75,3.75 0 0 1 942.5,93.032 L949.5,115.5999 L954,115.5999 A2.5,2.5 0 0 1 956.5,118.0999 L956.5,146.1678 A2.5,2.5 0 0 1 954,148.6678 L826,148.6678 A2.5,2.5 0 0 1 823.5,146.1678 L823.5,93.032 A2.5,2.5 0 0 1 826,90.532 " fill="#F1F1F1" style="stroke:#181818;stroke-width:0.5;"/><line style="stroke:#181818;stroke-width:0.5;" x1="823.5" x2="949.5" y1="115.5999" y2="115.5999"/><text fill="#000000" font-family="sans-serif" font-size="14" lengthAdjust="spacing" textLength="113" x="827.5" y="107.4979">Search Database</text><!--MD5=[f4d9286857893ae2de861cbcc768027e]
link Log in UI to Log in Logic--><g id="link_Log in UI_Log in Logic"><path d="M564.3,694.602 C629.3,694.602 759.36,694.602 833.64,694.602 " fill="none" id="Log in UI-to-Log in Logic" style="stroke:#181818;stroke-width:1.0;stroke-dasharray:7.0,7.0;"/><polygon fill="#181818" points="838.25,694.602,829.25,690.602,833.25,694.602,829.25,698.602,838.25,694.602" style="stroke:#181818;stroke-width:1.0;"/></g><!--MD5=[29efd5c79adf952eb205bed7d4510c9a]
link Log in Logic to Firebase--><g id="link_Log in Logic_Firebase"><path d="M940.12,678.132 C979.47,663.172 1034.46,638.152 1074,603.602 C1124.2,559.732 1163.7,491.822 1184.74,450.752 " fill="none" id="Log in Logic-to-Firebase" style="stroke:#181818;stroke-width:1.0;stroke-dasharray:7.0,7.0;"/><polygon fill="#181818" points="1186.9,446.492,1179.2654,452.714,1184.6411,450.9526,1186.4025,456.3283,1186.9,446.492" style="stroke:#181818;stroke-width:1.0;"/></g><!--MD5=[4e9250f0a9b40f74d33c119c3d0a717d]
link Home UI to Home Logic--><g id="link_Home UI_Home Logic"><path d="M563.27,558.602 C628.16,558.602 759.98,558.602 834.5,558.602 " fill="none" id="Home UI-to-Home Logic" style="stroke:#181818;stroke-width:1.0;stroke-dasharray:7.0,7.0;"/><polygon fill="#181818" points="839.13,558.602,830.13,554.602,834.13,558.602,830.13,562.602,839.13,558.602" style="stroke:#181818;stroke-width:1.0;"/></g><!--MD5=[0eb76b2a984c6eb8d8909c84fa623ba1]
link Home Logic to Open Street Map Search--><g id="link_Home Logic_Open Street Map Search"><path d="M939.16,548.262 C981.88,536.412 1042.27,512.522 1074,467.602 C1099.57,431.402 1058.96,403.722 1086,368.602 C1091.14,361.922 1097.4,356.212 1104.32,351.332 " fill="none" id="Home Logic-to-Open Street Map Search" style="stroke:#181818;stroke-width:1.0;stroke-dasharray:7.0,7.0;"/><polygon fill="#181818" points="1108.47,348.592,1098.7562,350.2176,1104.2988,351.349,1103.1674,356.8915,1108.47,348.592" style="stroke:#181818;stroke-width:1.0;"/></g><!--MD5=[95451e872aca7ccb6055facb9f792207]
link Profile, Reviews and Achievements UI to Profile, Reviews and Achievements Logic--><g id="link_Profile, Reviews and Achievements UI_Profile, Reviews and Achievements Logic"><path d="M318.35,422.602 C335.67,422.602 353.49,422.602 371.05,422.602 " fill="none" id="Profile, Reviews and Achievements UI-to-Profile, Reviews and Achievements Logic" style="stroke:#181818;stroke-width:1.0;stroke-dasharray:7.0,7.0;"/><polygon fill="#181818" points="375.99,422.602,366.99,418.602,370.99,422.602,366.99,426.602,375.99,422.602" style="stroke:#181818;stroke-width:1.0;"/></g><!--MD5=[8dc46b4fd7b646af7626783290bfd89d]
link Profile, Reviews and Achievements Logic to Profile, Reviews and Achievements Database--><g id="link_Profile, Reviews and Achievements Logic_Profile, Reviews and Achievements Database"><path d="M670.43,422.602 C687.8,422.602 705.64,422.602 723.27,422.602 " fill="none" id="Profile, Reviews and Achievements Logic-to-Profile, Reviews and Achievements Database" style="stroke:#181818;stroke-width:1.0;stroke-dasharray:7.0,7.0;"/><polygon fill="#181818" points="728.24,422.602,719.24,418.602,723.24,422.602,719.24,426.602,728.24,422.602" style="stroke:#181818;stroke-width:1.0;"/></g><!--MD5=[0dfd20cc3923ffe9cde184706a43662f]
link Profile, Reviews and Achievements Database to Firebase--><g id="link_Profile, Reviews and Achievements Database_Firebase"><path d="M1050.34,419.012 C1089.8,418.122 1128.9,417.242 1157.44,416.592 " fill="none" id="Profile, Reviews and Achievements Database-to-Firebase" style="stroke:#181818;stroke-width:1.0;stroke-dasharray:7.0,7.0;"/><polygon fill="#181818" points="1162.22,416.492,1153.1309,412.6987,1157.2213,416.6062,1153.3138,420.6966,1162.22,416.492" style="stroke:#181818;stroke-width:1.0;"/></g><!--MD5=[5f73887c5e2de127eb460a677b02c3ff]
link Location Info UI to Location Info Logic--><g id="link_Location Info UI_Location Info Logic"><path d="M245.36,286.602 C301.43,286.602 384.03,286.602 444.56,286.602 " fill="none" id="Location Info UI-to-Location Info Logic" style="stroke:#181818;stroke-width:1.0;stroke-dasharray:7.0,7.0;"/><polygon fill="#181818" points="449.2,286.602,440.2,282.602,444.2,286.602,440.2,290.602,449.2,286.602" style="stroke:#181818;stroke-width:1.0;"/></g><!--MD5=[874a25023f9a796c5c6b7125122a0d8c]
link Location Info Logic to Location Info Database--><g id="link_Location Info Logic_Location Info Database"><path d="M597.35,286.602 C654.48,286.602 734.58,286.602 796.39,286.602 " fill="none" id="Location Info Logic-to-Location Info Database" style="stroke:#181818;stroke-width:1.0;stroke-dasharray:7.0,7.0;"/><polygon fill="#181818" points="801.18,286.602,792.18,282.602,796.18,286.602,792.18,290.602,801.18,286.602" style="stroke:#181818;stroke-width:1.0;"/></g><!--MD5=[6f1d1a41309492457a6667e156d68e7b]
link Location Info Logic to Geocoding--><g id="link_Location Info Logic_Geocoding"><path d="M597.41,266.202 C636.36,256.192 685.43,245.122 730,239.602 C881.61,220.812 1062.68,224.102 1149.74,227.262 " fill="none" id="Location Info Logic-to-Geocoding" style="stroke:#181818;stroke-width:1.0;stroke-dasharray:7.0,7.0;"/><polygon fill="#181818" points="1154.58,227.442,1145.7347,223.1107,1149.5834,227.2564,1145.4377,231.1052,1154.58,227.442" style="stroke:#181818;stroke-width:1.0;"/></g><!--MD5=[8c3dd205eaf793166b34d68de56bbd0c]
link Location Info Database to Firebase--><g id="link_Location Info Database_Firebase"><path d="M958.97,315.992 C996.37,332.052 1043.64,352.152 1086,369.602 C1109.62,379.332 1136.09,389.902 1157.73,398.452 " fill="none" id="Location Info Database-to-Firebase" style="stroke:#181818;stroke-width:1.0;stroke-dasharray:7.0,7.0;"/><polygon fill="#181818" points="1162.29,400.252,1155.3745,393.2394,1157.6359,398.4246,1152.4507,400.686,1162.29,400.252" style="stroke:#181818;stroke-width:1.0;"/></g><!--MD5=[b1add250cfbf10a57ed5c5d966c7a8ba]
link Search UI to Search Logic--><g id="link_Search UI_Search Logic"><path d="M224.69,119.602 C284.9,119.602 396.45,119.602 464.76,119.602 " fill="none" id="Search UI-to-Search Logic" style="stroke:#181818;stroke-width:1.0;stroke-dasharray:7.0,7.0;"/><polygon fill="#181818" points="469.72,119.602,460.72,115.602,464.72,119.602,460.72,123.602,469.72,119.602" style="stroke:#181818;stroke-width:1.0;"/></g><!--MD5=[23c51625569547aeabdaa6b0f4121433]
link Search Logic to Search Database--><g id="link_Search Logic_Search Database"><path d="M576.77,119.602 C639.64,119.602 746.06,119.602 816.93,119.602 " fill="none" id="Search Logic-to-Search Database" style="stroke:#181818;stroke-width:1.0;stroke-dasharray:7.0,7.0;"/><polygon fill="#181818" points="821.73,119.602,812.73,115.602,816.73,119.602,812.73,123.602,821.73,119.602" style="stroke:#181818;stroke-width:1.0;"/></g><!--MD5=[648f65db5b8270f7da6c8a0c9b51f681]
link Search Database to Open Street Map Search--><g id="link_Search Database_Open Street Map Search"><path d="M955.23,148.932 C994.46,169.782 1042.89,201.222 1074,241.602 C1084.04,254.632 1074.66,264.692 1086,276.602 C1091.46,282.332 1097.72,287.362 1104.44,291.782 " fill="none" id="Search Database-to-Open Street Map Search" style="stroke:#181818;stroke-width:1.0;stroke-dasharray:7.0,7.0;"/><polygon fill="#181818" points="1108.39,294.232,1102.8657,286.0784,1104.146,291.5884,1098.6359,292.8688,1108.39,294.232" style="stroke:#181818;stroke-width:1.0;"/></g><!--MD5=[738a4cddc27bbf06166e348ef340a851]
link Search Logic to STCP--><g id="link_Search Logic_STCP"><path d="M576.89,104.422 C675.25,77.992 895.04,30.212 1074,72.602 C1108.95,80.882 1145.22,100.322 1170.1,115.622 " fill="none" id="Search Logic-to-STCP" style="stroke:#181818;stroke-width:1.0;stroke-dasharray:7.0,7.0;"/><polygon fill="#181818" points="1174.26,118.212,1168.7357,110.0584,1170.016,115.5684,1164.5059,116.8488,1174.26,118.212" style="stroke:#181818;stroke-width:1.0;"/></g><!--MD5=[545d1eb5b993eb65846faf4df9efe005]
link Location Info Logic to STCP--><g id="link_Location Info Logic_STCP"><path d="M597.43,261.852 C636.39,249.182 685.45,234.222 730,223.602 C880.89,187.632 921.76,194.362 1074,164.602 C1106.6,158.232 1143.67,149.972 1169.4,144.082 " fill="none" id="Location Info Logic-to-STCP" style="stroke:#181818;stroke-width:1.0;stroke-dasharray:7.0,7.0;"/><polygon fill="#181818" points="1174.21,142.982,1164.5447,141.0895,1169.3359,144.0969,1166.3285,148.8881,1174.21,142.982" style="stroke:#181818;stroke-width:1.0;"/></g><!--MD5=[42b76e2ef0ff5336da566b1e28008650]
@startuml study@
left to right direction

package "Logical Architecture" {

    package "Log in" {
        package "Log in UI" {}
        package "Log in Logic" {}
    }

    package "External Services" {
        package "Firebase" {}
        package "Open Street Map Search" {}
        package "Geocoding" {}
        package "STCP" {}
    }

    package "Home" {
        package "Home UI" {}
        package "Home Logic" {}
    }

    package "Profile, Reviews and Achievements" {
        package "Profile, Reviews and Achievements UI" {}
        package "Profile, Reviews and Achievements Logic" {}
        package "Profile, Reviews and Achievements Database" {}
    }

    package "Location Info" {
        package "Location Info UI" {}
        package "Location Info Logic" {}
        package "Location Info Database" {}
    }

    package "Search" {
        package "Search UI" {}
        package "Search Logic" {}
        package "Search Database" {}
    }

    "Log in UI" ..> "Log in Logic"
    "Log in Logic" ..> "Firebase"
    "Home UI" ..> "Home Logic"
    "Home Logic" ..> "Open Street Map Search"
    "Profile, Reviews and Achievements UI" ..> "Profile, Reviews and Achievements Logic"
    "Profile, Reviews and Achievements Logic" ..> "Profile, Reviews and Achievements Database"
    "Profile, Reviews and Achievements Database" ..> "Firebase"
    "Location Info UI" ..> "Location Info Logic"
    "Location Info Logic"..> "Location Info Database"
    "Location Info Logic" ..> "Geocoding"
    "Location Info Database" ..> "Firebase"
    "Search UI" ..> "Search Logic"
    "Search Logic" ..> "Search Database"
    "Search Database" ..> "Open Street Map Search"
    "Search Logic" ..> "STCP"
    "Location Info Logic" ..> "STCP"

}



@enduml

PlantUML version 1.2022.7(Mon Aug 22 18:01:30 BST 2022)
(GPL source distribution)
Java Runtime: OpenJDK Runtime Environment
JVM: OpenJDK 64-Bit Server VM
Default Encoding: UTF-8
Language: en
Country: GB
--></g></svg>