<?xml version="1.0" encoding="us-ascii" standalone="no"?><svg xmlns="http://www.w3.org/2000/svg" xmlns:xlink="http://www.w3.org/1999/xlink" contentStyleType="text/css" height="593px" preserveAspectRatio="none" style="width:817px;height:593px;background:#FFFFFF;" version="1.1" viewBox="0 0 817 593" width="817px" zoomAndPan="magnify"><defs/><g><!--class User--><g id="elem_User"><rect codeLine="3" fill="#F1F1F1" height="86.1358" id="User" rx="2.5" ry="2.5" style="stroke:#181818;stroke-width:0.5;" width="103" x="7" y="321.6"/><ellipse cx="40" cy="337.6" fill="#ADD1B2" rx="11" ry="11" style="stroke:#181818;stroke-width:1.0;"/><path d="M35,338.7563 C35,341.2563 37.1406,343.0688 40.0625,343.0688 C41.2969,343.0688 42.4688,342.7719 43.2188,342.2563 C43.8281,341.8344 44.1563,341.4125 44.1563,341.0063 C44.1563,340.5375 43.7344,340.1313 43.2344,340.1313 C43,340.1313 42.7813,340.2094 42.5781,340.4125 C42.1406,340.85 42.1406,340.85 41.9688,340.9438 C41.5156,341.1781 40.875,341.3188 40.1094,341.3188 C38.1094,341.3188 36.8281,340.3031 36.8281,338.725 L36.8281,337.6781 C36.8281,335.975 38.0469,334.7719 39.75,334.7719 C40.3281,334.7719 40.9063,334.9125 41.375,335.1625 C41.8438,335.4281 42.0156,335.6156 42.0781,335.975 C42.2031,336.6469 42.4531,336.8969 42.9844,336.8969 C43.2656,336.8969 43.5469,336.7563 43.7344,336.5375 C43.8594,336.3656 43.9063,336.1938 43.9063,335.7563 L43.9063,334.3969 C43.9063,333.975 43.8906,333.8344 43.7656,333.6625 C43.5938,333.4125 43.3125,333.2563 42.9844,333.2563 C42.6719,333.2563 42.4688,333.3656 42.25,333.6313 C41.0781,333.1313 40.6406,333.0219 39.6875,333.0219 C37.0156,333.0219 35,335.0375 35,337.6625 L35,338.7563 Z " fill="#000000"/><text fill="#000000" font-family="sans-serif" font-size="14" lengthAdjust="spacing" textLength="31" x="58" y="343.032">User</text><line style="stroke:#181818;stroke-width:0.5;" x1="8" x2="109" y1="353.6" y2="353.6"/><text fill="#000000" font-family="sans-serif" font-size="14" lengthAdjust="spacing" textLength="68" x="13" y="372.5659">username</text><text fill="#000000" font-family="sans-serif" font-size="14" lengthAdjust="spacing" textLength="91" x="13" y="391.6339">profilePicture</text><line style="stroke:#181818;stroke-width:0.5;" x1="8" x2="109" y1="399.7358" y2="399.7358"/></g><!--class Review--><g id="elem_Review"><rect codeLine="8" fill="#F1F1F1" height="86.1358" id="Review" rx="2.5" ry="2.5" style="stroke:#181818;stroke-width:0.5;" width="79" x="404" y="141.6"/><ellipse cx="419" cy="157.6" fill="#ADD1B2" rx="11" ry="11" style="stroke:#181818;stroke-width:1.0;"/><path d="M414,158.7563 C414,161.2563 416.1406,163.0688 419.0625,163.0688 C420.2969,163.0688 421.4688,162.7719 422.2188,162.2563 C422.8281,161.8344 423.1563,161.4125 423.1563,161.0063 C423.1563,160.5375 422.7344,160.1313 422.2344,160.1313 C422,160.1313 421.7813,160.2094 421.5781,160.4125 C421.1406,160.85 421.1406,160.85 420.9688,160.9438 C420.5156,161.1781 419.875,161.3188 419.1094,161.3188 C417.1094,161.3188 415.8281,160.3031 415.8281,158.725 L415.8281,157.6781 C415.8281,155.975 417.0469,154.7719 418.75,154.7719 C419.3281,154.7719 419.9063,154.9125 420.375,155.1625 C420.8438,155.4281 421.0156,155.6156 421.0781,155.975 C421.2031,156.6469 421.4531,156.8969 421.9844,156.8969 C422.2656,156.8969 422.5469,156.7563 422.7344,156.5375 C422.8594,156.3656 422.9063,156.1938 422.9063,155.7563 L422.9063,154.3969 C422.9063,153.975 422.8906,153.8344 422.7656,153.6625 C422.5938,153.4125 422.3125,153.2563 421.9844,153.2563 C421.6719,153.2563 421.4688,153.3656 421.25,153.6313 C420.0781,153.1313 419.6406,153.0219 418.6875,153.0219 C416.0156,153.0219 414,155.0375 414,157.6625 L414,158.7563 Z " fill="#000000"/><text fill="#000000" font-family="sans-serif" font-size="14" lengthAdjust="spacing" textLength="47" x="433" y="163.032">Review</text><line style="stroke:#181818;stroke-width:0.5;" x1="405" x2="482" y1="173.6" y2="173.6"/><text fill="#000000" font-family="sans-serif" font-size="14" lengthAdjust="spacing" textLength="41" x="410" y="192.5659">rating</text><text fill="#000000" font-family="sans-serif" font-size="14" lengthAdjust="spacing" textLength="63" x="410" y="211.6339">comment</text><line style="stroke:#181818;stroke-width:0.5;" x1="405" x2="482" y1="219.7358" y2="219.7358"/></g><!--class Location--><g id="elem_Location"><rect codeLine="13" fill="#F1F1F1" height="181.4754" id="Location" rx="2.5" ry="2.5" style="stroke:#181818;stroke-width:0.5;" width="88" x="543" y="129.93"/><ellipse cx="558" cy="145.93" fill="#ADD1B2" rx="11" ry="11" style="stroke:#181818;stroke-width:1.0;"/><path d="M553,147.0863 C553,149.5863 555.1406,151.3988 558.0625,151.3988 C559.2969,151.3988 560.4688,151.1019 561.2188,150.5863 C561.8281,150.1644 562.1563,149.7425 562.1563,149.3363 C562.1563,148.8675 561.7344,148.4613 561.2344,148.4613 C561,148.4613 560.7813,148.5394 560.5781,148.7425 C560.1406,149.18 560.1406,149.18 559.9688,149.2738 C559.5156,149.5081 558.875,149.6488 558.1094,149.6488 C556.1094,149.6488 554.8281,148.6331 554.8281,147.055 L554.8281,146.0081 C554.8281,144.305 556.0469,143.1019 557.75,143.1019 C558.3281,143.1019 558.9063,143.2425 559.375,143.4925 C559.8438,143.7581 560.0156,143.9456 560.0781,144.305 C560.2031,144.9769 560.4531,145.2269 560.9844,145.2269 C561.2656,145.2269 561.5469,145.0863 561.7344,144.8675 C561.8594,144.6956 561.9063,144.5238 561.9063,144.0863 L561.9063,142.7269 C561.9063,142.305 561.8906,142.1644 561.7656,141.9925 C561.5938,141.7425 561.3125,141.5863 560.9844,141.5863 C560.6719,141.5863 560.4688,141.6956 560.25,141.9613 C559.0781,141.4613 558.6406,141.3519 557.6875,141.3519 C555.0156,141.3519 553,143.3675 553,145.9925 L553,147.0863 Z " fill="#000000"/><text fill="#000000" font-family="sans-serif" font-size="14" lengthAdjust="spacing" textLength="56" x="572" y="151.362">Location</text><line style="stroke:#181818;stroke-width:0.5;" x1="544" x2="630" y1="161.93" y2="161.93"/><text fill="#000000" font-family="sans-serif" font-size="14" lengthAdjust="spacing" textLength="38" x="549" y="180.8959">name</text><text fill="#000000" font-family="sans-serif" font-size="14" lengthAdjust="spacing" textLength="42" x="549" y="199.9639">image</text><text fill="#000000" font-family="sans-serif" font-size="14" lengthAdjust="spacing" textLength="54" x="549" y="219.0318">address</text><text fill="#000000" font-family="sans-serif" font-size="14" lengthAdjust="spacing" textLength="36" x="549" y="238.0997">score</text><text fill="#000000" font-family="sans-serif" font-size="14" lengthAdjust="spacing" textLength="61" x="549" y="257.1676">schedule</text><text fill="#000000" font-family="sans-serif" font-size="14" lengthAdjust="spacing" textLength="37" x="549" y="276.2355">email</text><text fill="#000000" font-family="sans-serif" font-size="14" lengthAdjust="spacing" textLength="43" x="549" y="295.3034">phone</text><line style="stroke:#181818;stroke-width:0.5;" x1="544" x2="630" y1="303.4054" y2="303.4054"/></g><!--class Achievement--><g id="elem_Achievement"><rect codeLine="23" fill="#F1F1F1" height="143.3396" id="Achievement" rx="2.5" ry="2.5" style="stroke:#181818;stroke-width:0.5;" width="119" x="691" y="7"/><ellipse cx="706" cy="23" fill="#ADD1B2" rx="11" ry="11" style="stroke:#181818;stroke-width:1.0;"/><path d="M701,24.1563 C701,26.6563 703.1406,28.4688 706.0625,28.4688 C707.2969,28.4688 708.4688,28.1719 709.2188,27.6563 C709.8281,27.2344 710.1563,26.8125 710.1563,26.4063 C710.1563,25.9375 709.7344,25.5313 709.2344,25.5313 C709,25.5313 708.7813,25.6094 708.5781,25.8125 C708.1406,26.25 708.1406,26.25 707.9688,26.3438 C707.5156,26.5781 706.875,26.7188 706.1094,26.7188 C704.1094,26.7188 702.8281,25.7031 702.8281,24.125 L702.8281,23.0781 C702.8281,21.375 704.0469,20.1719 705.75,20.1719 C706.3281,20.1719 706.9063,20.3125 707.375,20.5625 C707.8438,20.8281 708.0156,21.0156 708.0781,21.375 C708.2031,22.0469 708.4531,22.2969 708.9844,22.2969 C709.2656,22.2969 709.5469,22.1563 709.7344,21.9375 C709.8594,21.7656 709.9063,21.5938 709.9063,21.1563 L709.9063,19.7969 C709.9063,19.375 709.8906,19.2344 709.7656,19.0625 C709.5938,18.8125 709.3125,18.6563 708.9844,18.6563 C708.6719,18.6563 708.4688,18.7656 708.25,19.0313 C707.0781,18.5313 706.6406,18.4219 705.6875,18.4219 C703.0156,18.4219 701,20.4375 701,23.0625 L701,24.1563 Z " fill="#000000"/><text fill="#000000" font-family="sans-serif" font-size="14" lengthAdjust="spacing" textLength="87" x="720" y="28.432">Achievement</text><line style="stroke:#181818;stroke-width:0.5;" x1="692" x2="809" y1="39" y2="39"/><text fill="#000000" font-family="sans-serif" font-size="14" lengthAdjust="spacing" textLength="38" x="697" y="57.9659">name</text><text fill="#000000" font-family="sans-serif" font-size="14" lengthAdjust="spacing" textLength="30" x="697" y="77.0339">time</text><text fill="#000000" font-family="sans-serif" font-size="14" lengthAdjust="spacing" textLength="30" x="697" y="96.1018">date</text><text fill="#000000" font-family="sans-serif" font-size="14" lengthAdjust="spacing" textLength="36" x="697" y="115.1697">rarity</text><text fill="#000000" font-family="sans-serif" font-size="14" lengthAdjust="spacing" textLength="31" x="697" y="134.2376">level</text><line style="stroke:#181818;stroke-width:0.5;" x1="692" x2="809" y1="142.3396" y2="142.3396"/></g><!--class Tag--><g id="elem_Tag"><rect codeLine="31" fill="#F1F1F1" height="67.0679" id="Tag" rx="2.5" ry="2.5" style="stroke:#181818;stroke-width:0.5;" width="57" x="722" y="187.14"/><ellipse cx="737" cy="203.14" fill="#ADD1B2" rx="11" ry="11" style="stroke:#181818;stroke-width:1.0;"/><path d="M732,204.2963 C732,206.7963 734.1406,208.6088 737.0625,208.6088 C738.2969,208.6088 739.4688,208.3119 740.2188,207.7963 C740.8281,207.3744 741.1563,206.9525 741.1563,206.5463 C741.1563,206.0775 740.7344,205.6713 740.2344,205.6713 C740,205.6713 739.7813,205.7494 739.5781,205.9525 C739.1406,206.39 739.1406,206.39 738.9688,206.4838 C738.5156,206.7181 737.875,206.8588 737.1094,206.8588 C735.1094,206.8588 733.8281,205.8431 733.8281,204.265 L733.8281,203.2181 C733.8281,201.515 735.0469,200.3119 736.75,200.3119 C737.3281,200.3119 737.9063,200.4525 738.375,200.7025 C738.8438,200.9681 739.0156,201.1556 739.0781,201.515 C739.2031,202.1869 739.4531,202.4369 739.9844,202.4369 C740.2656,202.4369 740.5469,202.2963 740.7344,202.0775 C740.8594,201.9056 740.9063,201.7338 740.9063,201.2963 L740.9063,199.9369 C740.9063,199.515 740.8906,199.3744 740.7656,199.2025 C740.5938,198.9525 740.3125,198.7963 739.9844,198.7963 C739.6719,198.7963 739.4688,198.9056 739.25,199.1713 C738.0781,198.6713 737.6406,198.5619 736.6875,198.5619 C734.0156,198.5619 732,200.5775 732,203.2025 L732,204.2963 Z " fill="#000000"/><text fill="#000000" font-family="sans-serif" font-size="14" lengthAdjust="spacing" textLength="25" x="751" y="208.572">Tag</text><line style="stroke:#181818;stroke-width:0.5;" x1="723" x2="778" y1="219.14" y2="219.14"/><text fill="#000000" font-family="sans-serif" font-size="14" lengthAdjust="spacing" textLength="38" x="728" y="238.1059">name</text><line style="stroke:#181818;stroke-width:0.5;" x1="723" x2="778" y1="246.2079" y2="246.2079"/></g><!--class GPS--><g id="elem_GPS"><rect codeLine="35" fill="#F1F1F1" height="86.1358" id="GPS" rx="2.5" ry="2.5" style="stroke:#181818;stroke-width:0.5;" width="77" x="712" y="305.6"/><ellipse cx="735.55" cy="321.6" fill="#ADD1B2" rx="11" ry="11" style="stroke:#181818;stroke-width:1.0;"/><path d="M730.55,322.7563 C730.55,325.2563 732.6906,327.0688 735.6125,327.0688 C736.8469,327.0688 738.0188,326.7719 738.7688,326.2563 C739.3781,325.8344 739.7063,325.4125 739.7063,325.0063 C739.7063,324.5375 739.2844,324.1313 738.7844,324.1313 C738.55,324.1313 738.3313,324.2094 738.1281,324.4125 C737.6906,324.85 737.6906,324.85 737.5188,324.9438 C737.0656,325.1781 736.425,325.3188 735.6594,325.3188 C733.6594,325.3188 732.3781,324.3031 732.3781,322.725 L732.3781,321.6781 C732.3781,319.975 733.5969,318.7719 735.3,318.7719 C735.8781,318.7719 736.4563,318.9125 736.925,319.1625 C737.3938,319.4281 737.5656,319.6156 737.6281,319.975 C737.7531,320.6469 738.0031,320.8969 738.5344,320.8969 C738.8156,320.8969 739.0969,320.7563 739.2844,320.5375 C739.4094,320.3656 739.4563,320.1938 739.4563,319.7563 L739.4563,318.3969 C739.4563,317.975 739.4406,317.8344 739.3156,317.6625 C739.1438,317.4125 738.8625,317.2563 738.5344,317.2563 C738.2219,317.2563 738.0188,317.3656 737.8,317.6313 C736.6281,317.1313 736.1906,317.0219 735.2375,317.0219 C732.5656,317.0219 730.55,319.0375 730.55,321.6625 L730.55,322.7563 Z " fill="#000000"/><text fill="#000000" font-family="sans-serif" font-size="14" lengthAdjust="spacing" textLength="26" x="751.45" y="327.032">GPS</text><line style="stroke:#181818;stroke-width:0.5;" x1="713" x2="788" y1="337.6" y2="337.6"/><text fill="#000000" font-family="sans-serif" font-size="14" lengthAdjust="spacing" textLength="52" x="718" y="356.5659">latitude</text><text fill="#000000" font-family="sans-serif" font-size="14" lengthAdjust="spacing" textLength="65" x="718" y="375.6339">longitude</text><line style="stroke:#181818;stroke-width:0.5;" x1="713" x2="788" y1="383.7358" y2="383.7358"/></g><!--class RegisteredStudent--><g id="elem_RegisteredStudent"><rect codeLine="40" fill="#F1F1F1" height="124.2717" id="RegisteredStudent" rx="2.5" ry="2.5" style="stroke:#181818;stroke-width:0.5;" width="158" x="178" y="187.54"/><ellipse cx="193" cy="203.54" fill="#ADD1B2" rx="11" ry="11" style="stroke:#181818;stroke-width:1.0;"/><path d="M188,204.6963 C188,207.1963 190.1406,209.0088 193.0625,209.0088 C194.2969,209.0088 195.4688,208.7119 196.2188,208.1963 C196.8281,207.7744 197.1563,207.3525 197.1563,206.9463 C197.1563,206.4775 196.7344,206.0713 196.2344,206.0713 C196,206.0713 195.7813,206.1494 195.5781,206.3525 C195.1406,206.79 195.1406,206.79 194.9688,206.8838 C194.5156,207.1181 193.875,207.2588 193.1094,207.2588 C191.1094,207.2588 189.8281,206.2431 189.8281,204.665 L189.8281,203.6181 C189.8281,201.915 191.0469,200.7119 192.75,200.7119 C193.3281,200.7119 193.9063,200.8525 194.375,201.1025 C194.8438,201.3681 195.0156,201.5556 195.0781,201.915 C195.2031,202.5869 195.4531,202.8369 195.9844,202.8369 C196.2656,202.8369 196.5469,202.6963 196.7344,202.4775 C196.8594,202.3056 196.9063,202.1338 196.9063,201.6963 L196.9063,200.3369 C196.9063,199.915 196.8906,199.7744 196.7656,199.6025 C196.5938,199.3525 196.3125,199.1963 195.9844,199.1963 C195.6719,199.1963 195.4688,199.3056 195.25,199.5713 C194.0781,199.0713 193.6406,198.9619 192.6875,198.9619 C190.0156,198.9619 188,200.9775 188,203.6025 L188,204.6963 Z " fill="#000000"/><text fill="#000000" font-family="sans-serif" font-size="14" lengthAdjust="spacing" textLength="126" x="207" y="208.972">RegisteredStudent</text><line style="stroke:#181818;stroke-width:0.5;" x1="179" x2="335" y1="219.54" y2="219.54"/><text fill="#000000" font-family="sans-serif" font-size="14" lengthAdjust="spacing" textLength="66" x="184" y="238.5059">university</text><text fill="#000000" font-family="sans-serif" font-size="14" lengthAdjust="spacing" textLength="51" x="184" y="257.5739">reviews</text><text fill="#000000" font-family="sans-serif" font-size="14" lengthAdjust="spacing" textLength="37" x="184" y="276.6418">email</text><text fill="#000000" font-family="sans-serif" font-size="14" lengthAdjust="spacing" textLength="65" x="184" y="295.7097">password</text><line style="stroke:#181818;stroke-width:0.5;" x1="179" x2="335" y1="303.8117" y2="303.8117"/></g><!--class UnregisteredStudent--><g id="elem_UnregisteredStudent"><rect codeLine="47" fill="#F1F1F1" height="48" id="UnregisteredStudent" rx="2.5" ry="2.5" style="stroke:#181818;stroke-width:0.5;" width="174" x="170" y="417.67"/><ellipse cx="185" cy="433.67" fill="#ADD1B2" rx="11" ry="11" style="stroke:#181818;stroke-width:1.0;"/><path d="M180,434.8263 C180,437.3263 182.1406,439.1388 185.0625,439.1388 C186.2969,439.1388 187.4688,438.8419 188.2188,438.3263 C188.8281,437.9044 189.1563,437.4825 189.1563,437.0763 C189.1563,436.6075 188.7344,436.2013 188.2344,436.2013 C188,436.2013 187.7813,436.2794 187.5781,436.4825 C187.1406,436.92 187.1406,436.92 186.9688,437.0138 C186.5156,437.2481 185.875,437.3888 185.1094,437.3888 C183.1094,437.3888 181.8281,436.3731 181.8281,434.795 L181.8281,433.7481 C181.8281,432.045 183.0469,430.8419 184.75,430.8419 C185.3281,430.8419 185.9063,430.9825 186.375,431.2325 C186.8438,431.4981 187.0156,431.6856 187.0781,432.045 C187.2031,432.7169 187.4531,432.9669 187.9844,432.9669 C188.2656,432.9669 188.5469,432.8263 188.7344,432.6075 C188.8594,432.4356 188.9063,432.2638 188.9063,431.8263 L188.9063,430.4669 C188.9063,430.045 188.8906,429.9044 188.7656,429.7325 C188.5938,429.4825 188.3125,429.3263 187.9844,429.3263 C187.6719,429.3263 187.4688,429.4356 187.25,429.7013 C186.0781,429.2013 185.6406,429.0919 184.6875,429.0919 C182.0156,429.0919 180,431.1075 180,433.7325 L180,434.8263 Z " fill="#000000"/><text fill="#000000" font-family="sans-serif" font-size="14" lengthAdjust="spacing" textLength="142" x="199" y="439.102">UnregisteredStudent</text><line style="stroke:#181818;stroke-width:0.5;" x1="171" x2="343" y1="449.67" y2="449.67"/><line style="stroke:#181818;stroke-width:0.5;" x1="171" x2="343" y1="457.67" y2="457.67"/></g><!--class Admin--><g id="elem_Admin"><rect codeLine="49" fill="#F1F1F1" height="86.1358" id="Admin" rx="2.5" ry="2.5" style="stroke:#181818;stroke-width:0.5;" width="77" x="218.5" y="500.6"/><ellipse cx="233.95" cy="516.6" fill="#ADD1B2" rx="11" ry="11" style="stroke:#181818;stroke-width:1.0;"/><path d="M228.95,517.7563 C228.95,520.2563 231.0906,522.0688 234.0125,522.0688 C235.2469,522.0688 236.4188,521.7719 237.1688,521.2563 C237.7781,520.8344 238.1063,520.4125 238.1063,520.0063 C238.1063,519.5375 237.6844,519.1313 237.1844,519.1313 C236.95,519.1313 236.7313,519.2094 236.5281,519.4125 C236.0906,519.85 236.0906,519.85 235.9188,519.9438 C235.4656,520.1781 234.825,520.3188 234.0594,520.3188 C232.0594,520.3188 230.7781,519.3031 230.7781,517.725 L230.7781,516.6781 C230.7781,514.975 231.9969,513.7719 233.7,513.7719 C234.2781,513.7719 234.8563,513.9125 235.325,514.1625 C235.7938,514.4281 235.9656,514.6156 236.0281,514.975 C236.1531,515.6469 236.4031,515.8969 236.9344,515.8969 C237.2156,515.8969 237.4969,515.7563 237.6844,515.5375 C237.8094,515.3656 237.8563,515.1938 237.8563,514.7563 L237.8563,513.3969 C237.8563,512.975 237.8406,512.8344 237.7156,512.6625 C237.5438,512.4125 237.2625,512.2563 236.9344,512.2563 C236.6219,512.2563 236.4188,512.3656 236.2,512.6313 C235.0281,512.1313 234.5906,512.0219 233.6375,512.0219 C230.9656,512.0219 228.95,514.0375 228.95,516.6625 L228.95,517.7563 Z " fill="#000000"/><text fill="#000000" font-family="sans-serif" font-size="14" lengthAdjust="spacing" textLength="44" x="248.05" y="522.032">Admin</text><line style="stroke:#181818;stroke-width:0.5;" x1="219.5" x2="294.5" y1="532.6" y2="532.6"/><text fill="#000000" font-family="sans-serif" font-size="14" lengthAdjust="spacing" textLength="37" x="224.5" y="551.5659">email</text><text fill="#000000" font-family="sans-serif" font-size="14" lengthAdjust="spacing" textLength="65" x="224.5" y="570.6339">password</text><line style="stroke:#181818;stroke-width:0.5;" x1="219.5" x2="294.5" y1="578.7358" y2="578.7358"/></g><!--link RegisteredStudent to Review--><g id="link_RegisteredStudent_Review"><path codeLine="55" d="M336.24,222.11 C359.62,213.87 384.22,205.2 403.86,198.28 " fill="none" id="RegisteredStudent-Review" style="stroke:#181818;stroke-width:1.0;"/><text fill="#000000" font-family="sans-serif" font-size="13" lengthAdjust="spacing" textLength="7" x="344.1262" y="234.2234">1</text><text fill="#000000" font-family="sans-serif" font-size="13" lengthAdjust="spacing" textLength="7" x="388.9061" y="216.319">*</text></g><!--link RegisteredStudent to Location--><g id="link_RegisteredStudent_Location"><path codeLine="56" d="M336.4,252.5 C379.78,253 434.56,251.9 483,245.67 C502.8,243.12 524.32,238.25 542.54,233.47 " fill="none" id="RegisteredStudent-Location" style="stroke:#181818;stroke-width:1.0;"/><text fill="#000000" font-family="sans-serif" font-size="13" lengthAdjust="spacing" textLength="7" x="344.0423" y="267.4735">*</text><text fill="#000000" font-family="sans-serif" font-size="13" lengthAdjust="spacing" textLength="7" x="527.8964" y="250.8183">*</text></g><!--link Location to Tag--><g id="link_Location_Tag"><path codeLine="57" d="M631.28,220.67 C660.06,220.67 696.99,220.67 721.86,220.67 " fill="none" id="Location-Tag" style="stroke:#181818;stroke-width:1.0;"/><text fill="#000000" font-family="sans-serif" font-size="13" lengthAdjust="spacing" textLength="7" x="638.8949" y="235.9783">*</text><text fill="#000000" font-family="sans-serif" font-size="13" lengthAdjust="spacing" textLength="7" x="707.0259" y="236.724">*</text></g><!--link Review to Location--><g id="link_Review_Location"><path codeLine="58" d="M483.17,194.51 C501.58,199.19 523.67,204.81 542.64,209.64 " fill="none" id="Review-Location" style="stroke:#181818;stroke-width:1.0;"/><text fill="#000000" font-family="sans-serif" font-size="13" lengthAdjust="spacing" textLength="7" x="491.1295" y="211.8539">*</text><text fill="#000000" font-family="sans-serif" font-size="13" lengthAdjust="spacing" textLength="7" x="528.0123" y="223.1904">1</text></g><!--link User to Achievement--><g id="link_User_Achievement"><path codeLine="59" d="M72.14,321.27 C87.63,276.1 118.39,206.88 170,169.67 C329.64,54.57 578.49,61.39 690.89,71.65 " fill="none" id="User-Achievement" style="stroke:#181818;stroke-width:1.0;"/><text fill="#000000" font-family="sans-serif" font-size="13" lengthAdjust="spacing" textLength="7" x="66.7561" y="309.952">*</text><text fill="#000000" font-family="sans-serif" font-size="13" lengthAdjust="spacing" textLength="7" x="675.804" y="85.7819">*</text></g><!--link Location to Achievement--><g id="link_Location_Achievement"><path codeLine="60" d="M631.28,182.62 C649.5,166.6 670.99,147.7 690.61,130.45 " fill="none" id="Location-Achievement" style="stroke:#181818;stroke-width:1.0;"/><text fill="#000000" font-family="sans-serif" font-size="13" lengthAdjust="spacing" textLength="7" x="638.8949" y="191.8641">*</text><text fill="#000000" font-family="sans-serif" font-size="13" lengthAdjust="spacing" textLength="7" x="675.8843" y="151.7367">*</text></g><!--link User to GPS--><g id="link_User_GPS"><path codeLine="61" d="M110.24,363.5 C242.51,360.43 595.66,352.24 711.86,349.54 " fill="none" id="User-GPS" style="stroke:#181818;stroke-width:1.0;"/><text fill="#000000" font-family="sans-serif" font-size="13" lengthAdjust="spacing" textLength="7" x="118.0081" y="378.4777">*</text><text fill="#000000" font-family="sans-serif" font-size="13" lengthAdjust="spacing" textLength="7" x="697.0904" y="365.2301">1</text></g><!--link Location to GPS--><g id="link_Location_GPS"><path codeLine="62" d="M631.28,254.97 C656.32,274.82 687.54,299.56 711.6,318.64 " fill="none" id="Location-GPS" style="stroke:#181818;stroke-width:1.0;"/><text fill="#000000" font-family="sans-serif" font-size="13" lengthAdjust="spacing" textLength="7" x="638.8949" y="275.7449">1</text><text fill="#000000" font-family="sans-serif" font-size="13" lengthAdjust="spacing" textLength="7" x="697.0475" y="328.7652">1</text></g><!--reverse link User to RegisteredStudent--><g id="link_User_RegisteredStudent"><path codeLine="63" d="M125.8951,325.8182 C146.3651,313.8382 154.91,308.84 177.52,295.6 " fill="none" id="User-backto-RegisteredStudent" style="stroke:#181818;stroke-width:1.0;"/><polygon fill="none" points="110.36,334.91,128.9257,330.9965,122.8645,320.6398,110.36,334.91" style="stroke:#181818;stroke-width:1.0;"/></g><!--reverse link User to UnregisteredStudent--><g id="link_User_UnregisteredStudent"><path codeLine="64" d="M127.1194,391.1669 C152.5894,401.1469 166.89,406.75 193.78,417.29 " fill="none" id="User-backto-UnregisteredStudent" style="stroke:#181818;stroke-width:1.0;"/><polygon fill="none" points="110.36,384.6,124.9304,396.7533,129.3083,385.5804,110.36,384.6" style="stroke:#181818;stroke-width:1.0;"/></g><!--reverse link User to Admin--><g id="link_User_Admin"><path codeLine="65" d="M107.6698,421.6318 C128.3098,445.1618 143.41,460.55 170,483.67 C184.97,496.69 202.79,509.5 218.31,519.92 " fill="none" id="User-backto-Admin" style="stroke:#181818;stroke-width:1.0;"/><polygon fill="none" points="95.8,408.1,103.1592,425.5884,112.1804,417.6752,95.8,408.1" style="stroke:#181818;stroke-width:1.0;"/></g><!--SRC=[RLAxRiCm3Dpr5OB701cyT-dKfKFGD1yWI8nDG8-2eXqKRV-ziYpRIc9D9ztn-9A5AqiEah3hMHeaq8p12w6jYb5U8f3y4JAT8K6l7EJB5uKhMZYXve50_2tw3nWHRYM25AFlCjJ1EV2y2T-3LbEY8bsDqQbkHieOWXWpZZeG5DI36Uny0QVGplNqmLTblEeUOOGfvMC2nWACOf2bJaB-pj2cABlvVAgkYfSRyNOw5yAcDdWmiwSDlfjlrKGwZ0m4vZmHQq63nn4eBeaf3ou-jfKSRe7CPdVnz6ouzMqSBYFTTn7FzJHj8uz7sHoQihuzpM7LB9iJwmehCWrCb3-mlBPLIFvEbRpQqwvTpT_59jEqWYgclNlFsfVVzFBKIiNjpB9Yyoo5-0S0]--></g></svg>