<?xml version="1.0" encoding="UTF-8" standalone="no"?><svg xmlns="http://www.w3.org/2000/svg" xmlns:xlink="http://www.w3.org/1999/xlink" contentStyleType="text/css" height="798px" preserveAspectRatio="none" style="width:774px;height:798px;background:#FFFFFF;" version="1.1" viewBox="0 0 774 798" width="774px" zoomAndPan="magnify"><defs/><g><!--MD5=[3fd616f346a44cd59a91eb10b19e157c]
class User--><g id="elem_User"><rect codeLine="3" fill="#F1F1F1" height="86.1358" id="User" rx="2.5" ry="2.5" style="stroke:#181818;stroke-width:0.5;" width="103" x="7" y="425.5"/><ellipse cx="40" cy="441.5" fill="#ADD1B2" rx="11" ry="11" style="stroke:#181818;stroke-width:1.0;"/><path d="M39.4688,448.4219 Q37.7188,448.4219 36.5781,447.6875 Q35.4531,446.9375 34.8906,445.5938 Q34.3438,444.2344 34.3438,442.4375 Q34.3438,440.4063 35,438.9531 Q35.6563,437.5 36.9375,436.7188 Q38.2188,435.9375 40.0938,435.9375 Q40.9844,435.9375 41.6563,436.125 Q42.3281,436.2969 43.0156,436.6406 L42.2031,438.6563 Q41.5781,438.3438 41.0313,438.2188 Q40.5,438.0938 40.0156,438.0938 Q38.8438,438.0938 38.1406,438.625 Q37.4375,439.1563 37.1406,440.1094 Q36.8438,441.0625 36.8438,442.3281 Q36.8438,444.3438 37.5625,445.3125 Q38.2813,446.2656 39.875,446.2656 Q40.4688,446.2656 41.0938,446.1094 Q41.7188,445.9531 42.5469,445.5781 L42.5469,447.7969 Q41.8125,448.1094 41.0156,448.2656 Q40.2344,448.4219 39.4688,448.4219 Z " fill="#000000"/><text fill="#000000" font-family="sans-serif" font-size="14" lengthAdjust="spacing" textLength="31" x="58" y="446.932">User</text><line style="stroke:#181818;stroke-width:0.5;" x1="8" x2="109" y1="457.5" y2="457.5"/><text fill="#000000" font-family="sans-serif" font-size="14" lengthAdjust="spacing" textLength="68" x="13" y="476.4659">username</text><text fill="#000000" font-family="sans-serif" font-size="14" lengthAdjust="spacing" textLength="91" x="13" y="495.5339">profilePicture</text><line style="stroke:#181818;stroke-width:0.5;" x1="8" x2="109" y1="503.6358" y2="503.6358"/></g><!--MD5=[eb0e8f8ddfdc21c3fdb48447501fec67]
class Review--><g id="elem_Review"><rect codeLine="8" fill="#F1F1F1" height="86.1358" id="Review" rx="2.5" ry="2.5" style="stroke:#181818;stroke-width:0.5;" width="79" x="241.5" y="227.5"/><ellipse cx="256.5" cy="243.5" fill="#ADD1B2" rx="11" ry="11" style="stroke:#181818;stroke-width:1.0;"/><path d="M255.9688,250.4219 Q254.2188,250.4219 253.0781,249.6875 Q251.9531,248.9375 251.3906,247.5938 Q250.8438,246.2344 250.8438,244.4375 Q250.8438,242.4063 251.5,240.9531 Q252.1563,239.5 253.4375,238.7188 Q254.7188,237.9375 256.5938,237.9375 Q257.4844,237.9375 258.1563,238.125 Q258.8281,238.2969 259.5156,238.6406 L258.7031,240.6563 Q258.0781,240.3438 257.5313,240.2188 Q257,240.0938 256.5156,240.0938 Q255.3438,240.0938 254.6406,240.625 Q253.9375,241.1563 253.6406,242.1094 Q253.3438,243.0625 253.3438,244.3281 Q253.3438,246.3438 254.0625,247.3125 Q254.7813,248.2656 256.375,248.2656 Q256.9688,248.2656 257.5938,248.1094 Q258.2188,247.9531 259.0469,247.5781 L259.0469,249.7969 Q258.3125,250.1094 257.5156,250.2656 Q256.7344,250.4219 255.9688,250.4219 Z " fill="#000000"/><text fill="#000000" font-family="sans-serif" font-size="14" lengthAdjust="spacing" textLength="47" x="270.5" y="248.932">Review</text><line style="stroke:#181818;stroke-width:0.5;" x1="242.5" x2="319.5" y1="259.5" y2="259.5"/><text fill="#000000" font-family="sans-serif" font-size="14" lengthAdjust="spacing" textLength="41" x="247.5" y="278.4659">rating</text><text fill="#000000" font-family="sans-serif" font-size="14" lengthAdjust="spacing" textLength="63" x="247.5" y="297.5339">comment</text><line style="stroke:#181818;stroke-width:0.5;" x1="242.5" x2="319.5" y1="305.6358" y2="305.6358"/></g><!--MD5=[4f1f3706c1a355a8488e154afcaed5df]
class Location--><g id="elem_Location"><rect codeLine="13" fill="#F1F1F1" height="181.4754" id="Location" rx="2.5" ry="2.5" style="stroke:#181818;stroke-width:0.5;" width="88" x="452" y="156"/><ellipse cx="467" cy="172" fill="#ADD1B2" rx="11" ry="11" style="stroke:#181818;stroke-width:1.0;"/><path d="M466.4688,178.9219 Q464.7188,178.9219 463.5781,178.1875 Q462.4531,177.4375 461.8906,176.0938 Q461.3438,174.7344 461.3438,172.9375 Q461.3438,170.9063 462,169.4531 Q462.6563,168 463.9375,167.2188 Q465.2188,166.4375 467.0938,166.4375 Q467.9844,166.4375 468.6563,166.625 Q469.3281,166.7969 470.0156,167.1406 L469.2031,169.1563 Q468.5781,168.8438 468.0313,168.7188 Q467.5,168.5938 467.0156,168.5938 Q465.8438,168.5938 465.1406,169.125 Q464.4375,169.6563 464.1406,170.6094 Q463.8438,171.5625 463.8438,172.8281 Q463.8438,174.8438 464.5625,175.8125 Q465.2813,176.7656 466.875,176.7656 Q467.4688,176.7656 468.0938,176.6094 Q468.7188,176.4531 469.5469,176.0781 L469.5469,178.2969 Q468.8125,178.6094 468.0156,178.7656 Q467.2344,178.9219 466.4688,178.9219 Z " fill="#000000"/><text fill="#000000" font-family="sans-serif" font-size="14" lengthAdjust="spacing" textLength="56" x="481" y="177.432">Location</text><line style="stroke:#181818;stroke-width:0.5;" x1="453" x2="539" y1="188" y2="188"/><text fill="#000000" font-family="sans-serif" font-size="14" lengthAdjust="spacing" textLength="38" x="458" y="206.9659">name</text><text fill="#000000" font-family="sans-serif" font-size="14" lengthAdjust="spacing" textLength="42" x="458" y="226.0339">image</text><text fill="#000000" font-family="sans-serif" font-size="14" lengthAdjust="spacing" textLength="54" x="458" y="245.1018">address</text><text fill="#000000" font-family="sans-serif" font-size="14" lengthAdjust="spacing" textLength="36" x="458" y="264.1697">score</text><text fill="#000000" font-family="sans-serif" font-size="14" lengthAdjust="spacing" textLength="61" x="458" y="283.2376">schedule</text><text fill="#000000" font-family="sans-serif" font-size="14" lengthAdjust="spacing" textLength="37" x="458" y="302.3055">email</text><text fill="#000000" font-family="sans-serif" font-size="14" lengthAdjust="spacing" textLength="43" x="458" y="321.3734">phone</text><line style="stroke:#181818;stroke-width:0.5;" x1="453" x2="539" y1="329.4754" y2="329.4754"/></g><!--MD5=[8eb037851e5efc6a90a22899bfaf0fd8]
class Achievement--><g id="elem_Achievement"><rect codeLine="23" fill="#F1F1F1" height="143.3396" id="Achievement" rx="2.5" ry="2.5" style="stroke:#181818;stroke-width:0.5;" width="119" x="648" y="7"/><ellipse cx="663" cy="23" fill="#ADD1B2" rx="11" ry="11" style="stroke:#181818;stroke-width:1.0;"/><path d="M662.4688,29.9219 Q660.7188,29.9219 659.5781,29.1875 Q658.4531,28.4375 657.8906,27.0938 Q657.3438,25.7344 657.3438,23.9375 Q657.3438,21.9063 658,20.4531 Q658.6563,19 659.9375,18.2188 Q661.2188,17.4375 663.0938,17.4375 Q663.9844,17.4375 664.6563,17.625 Q665.3281,17.7969 666.0156,18.1406 L665.2031,20.1563 Q664.5781,19.8438 664.0313,19.7188 Q663.5,19.5938 663.0156,19.5938 Q661.8438,19.5938 661.1406,20.125 Q660.4375,20.6563 660.1406,21.6094 Q659.8438,22.5625 659.8438,23.8281 Q659.8438,25.8438 660.5625,26.8125 Q661.2813,27.7656 662.875,27.7656 Q663.4688,27.7656 664.0938,27.6094 Q664.7188,27.4531 665.5469,27.0781 L665.5469,29.2969 Q664.8125,29.6094 664.0156,29.7656 Q663.2344,29.9219 662.4688,29.9219 Z " fill="#000000"/><text fill="#000000" font-family="sans-serif" font-size="14" lengthAdjust="spacing" textLength="87" x="677" y="28.432">Achievement</text><line style="stroke:#181818;stroke-width:0.5;" x1="649" x2="766" y1="39" y2="39"/><text fill="#000000" font-family="sans-serif" font-size="14" lengthAdjust="spacing" textLength="38" x="654" y="57.9659">name</text><text fill="#000000" font-family="sans-serif" font-size="14" lengthAdjust="spacing" textLength="30" x="654" y="77.0339">time</text><text fill="#000000" font-family="sans-serif" font-size="14" lengthAdjust="spacing" textLength="30" x="654" y="96.1018">date</text><text fill="#000000" font-family="sans-serif" font-size="14" lengthAdjust="spacing" textLength="36" x="654" y="115.1697">rarity</text><text fill="#000000" font-family="sans-serif" font-size="14" lengthAdjust="spacing" textLength="31" x="654" y="134.2376">level</text><line style="stroke:#181818;stroke-width:0.5;" x1="649" x2="766" y1="142.3396" y2="142.3396"/></g><!--MD5=[39d6d2ea03de602dbf4d534e70c872a9]
class Tag--><g id="elem_Tag"><rect codeLine="31" fill="#F1F1F1" height="67.0679" id="Tag" rx="2.5" ry="2.5" style="stroke:#181818;stroke-width:0.5;" width="57" x="679" y="225"/><ellipse cx="694" cy="241" fill="#ADD1B2" rx="11" ry="11" style="stroke:#181818;stroke-width:1.0;"/><path d="M693.4688,247.9219 Q691.7188,247.9219 690.5781,247.1875 Q689.4531,246.4375 688.8906,245.0938 Q688.3438,243.7344 688.3438,241.9375 Q688.3438,239.9063 689,238.4531 Q689.6563,237 690.9375,236.2188 Q692.2188,235.4375 694.0938,235.4375 Q694.9844,235.4375 695.6563,235.625 Q696.3281,235.7969 697.0156,236.1406 L696.2031,238.1563 Q695.5781,237.8438 695.0313,237.7188 Q694.5,237.5938 694.0156,237.5938 Q692.8438,237.5938 692.1406,238.125 Q691.4375,238.6563 691.1406,239.6094 Q690.8438,240.5625 690.8438,241.8281 Q690.8438,243.8438 691.5625,244.8125 Q692.2813,245.7656 693.875,245.7656 Q694.4688,245.7656 695.0938,245.6094 Q695.7188,245.4531 696.5469,245.0781 L696.5469,247.2969 Q695.8125,247.6094 695.0156,247.7656 Q694.2344,247.9219 693.4688,247.9219 Z " fill="#000000"/><text fill="#000000" font-family="sans-serif" font-size="14" lengthAdjust="spacing" textLength="25" x="708" y="246.432">Tag</text><line style="stroke:#181818;stroke-width:0.5;" x1="680" x2="735" y1="257" y2="257"/><text fill="#000000" font-family="sans-serif" font-size="14" lengthAdjust="spacing" textLength="38" x="685" y="275.9659">name</text><line style="stroke:#181818;stroke-width:0.5;" x1="680" x2="735" y1="284.0679" y2="284.0679"/></g><!--MD5=[d66f0bc35a4401165692cb71d5fbb22a]
class GPS--><g id="elem_GPS"><rect codeLine="35" fill="#F1F1F1" height="86.1358" id="GPS" rx="2.5" ry="2.5" style="stroke:#181818;stroke-width:0.5;" width="77" x="669" y="367.5"/><ellipse cx="692.55" cy="383.5" fill="#ADD1B2" rx="11" ry="11" style="stroke:#181818;stroke-width:1.0;"/><path d="M692.0188,390.4219 Q690.2688,390.4219 689.1281,389.6875 Q688.0031,388.9375 687.4406,387.5938 Q686.8938,386.2344 686.8938,384.4375 Q686.8938,382.4063 687.55,380.9531 Q688.2063,379.5 689.4875,378.7188 Q690.7688,377.9375 692.6438,377.9375 Q693.5344,377.9375 694.2063,378.125 Q694.8781,378.2969 695.5656,378.6406 L694.7531,380.6563 Q694.1281,380.3438 693.5813,380.2188 Q693.05,380.0938 692.5656,380.0938 Q691.3938,380.0938 690.6906,380.625 Q689.9875,381.1563 689.6906,382.1094 Q689.3938,383.0625 689.3938,384.3281 Q689.3938,386.3438 690.1125,387.3125 Q690.8313,388.2656 692.425,388.2656 Q693.0188,388.2656 693.6438,388.1094 Q694.2688,387.9531 695.0969,387.5781 L695.0969,389.7969 Q694.3625,390.1094 693.5656,390.2656 Q692.7844,390.4219 692.0188,390.4219 Z " fill="#000000"/><text fill="#000000" font-family="sans-serif" font-size="14" lengthAdjust="spacing" textLength="26" x="708.45" y="388.932">GPS</text><line style="stroke:#181818;stroke-width:0.5;" x1="670" x2="745" y1="399.5" y2="399.5"/><text fill="#000000" font-family="sans-serif" font-size="14" lengthAdjust="spacing" textLength="52" x="675" y="418.4659">latitude</text><text fill="#000000" font-family="sans-serif" font-size="14" lengthAdjust="spacing" textLength="65" x="675" y="437.5339">longitude</text><line style="stroke:#181818;stroke-width:0.5;" x1="670" x2="745" y1="445.6358" y2="445.6358"/></g><!--MD5=[9bb742b41f79fdb4731bb180a6a9e5cb]
class RegisteredStudent--><g id="elem_RegisteredStudent"><rect codeLine="40" fill="#F1F1F1" height="124.2717" id="RegisteredStudent" rx="2.5" ry="2.5" style="stroke:#181818;stroke-width:0.5;" width="158" x="202" y="463.37"/><ellipse cx="217" cy="479.37" fill="#ADD1B2" rx="11" ry="11" style="stroke:#181818;stroke-width:1.0;"/><path d="M216.4688,486.2919 Q214.7188,486.2919 213.5781,485.5575 Q212.4531,484.8075 211.8906,483.4638 Q211.3438,482.1044 211.3438,480.3075 Q211.3438,478.2763 212,476.8231 Q212.6563,475.37 213.9375,474.5888 Q215.2188,473.8075 217.0938,473.8075 Q217.9844,473.8075 218.6563,473.995 Q219.3281,474.1669 220.0156,474.5106 L219.2031,476.5263 Q218.5781,476.2138 218.0313,476.0888 Q217.5,475.9638 217.0156,475.9638 Q215.8438,475.9638 215.1406,476.495 Q214.4375,477.0263 214.1406,477.9794 Q213.8438,478.9325 213.8438,480.1981 Q213.8438,482.2138 214.5625,483.1825 Q215.2813,484.1356 216.875,484.1356 Q217.4688,484.1356 218.0938,483.9794 Q218.7188,483.8231 219.5469,483.4481 L219.5469,485.6669 Q218.8125,485.9794 218.0156,486.1356 Q217.2344,486.2919 216.4688,486.2919 Z " fill="#000000"/><text fill="#000000" font-family="sans-serif" font-size="14" lengthAdjust="spacing" textLength="126" x="231" y="484.802">RegisteredStudent</text><line style="stroke:#181818;stroke-width:0.5;" x1="203" x2="359" y1="495.37" y2="495.37"/><text fill="#000000" font-family="sans-serif" font-size="14" lengthAdjust="spacing" textLength="66" x="208" y="514.3359">university</text><text fill="#000000" font-family="sans-serif" font-size="14" lengthAdjust="spacing" textLength="51" x="208" y="533.4039">reviews</text><text fill="#000000" font-family="sans-serif" font-size="14" lengthAdjust="spacing" textLength="37" x="208" y="552.4718">email</text><text fill="#000000" font-family="sans-serif" font-size="14" lengthAdjust="spacing" textLength="65" x="208" y="571.5397">password</text><line style="stroke:#181818;stroke-width:0.5;" x1="203" x2="359" y1="579.6417" y2="579.6417"/></g><!--MD5=[cd0cae71afe0fbbf8efac1e8761cdb77]
class UnregisteredStudent--><g id="elem_UnregisteredStudent"><rect codeLine="47" fill="#F1F1F1" height="48" id="UnregisteredStudent" rx="2.5" ry="2.5" style="stroke:#181818;stroke-width:0.5;" width="174" x="194" y="622.5"/><ellipse cx="209" cy="638.5" fill="#ADD1B2" rx="11" ry="11" style="stroke:#181818;stroke-width:1.0;"/><path d="M208.4688,645.4219 Q206.7188,645.4219 205.5781,644.6875 Q204.4531,643.9375 203.8906,642.5938 Q203.3438,641.2344 203.3438,639.4375 Q203.3438,637.4063 204,635.9531 Q204.6563,634.5 205.9375,633.7188 Q207.2188,632.9375 209.0938,632.9375 Q209.9844,632.9375 210.6563,633.125 Q211.3281,633.2969 212.0156,633.6406 L211.2031,635.6563 Q210.5781,635.3438 210.0313,635.2188 Q209.5,635.0938 209.0156,635.0938 Q207.8438,635.0938 207.1406,635.625 Q206.4375,636.1563 206.1406,637.1094 Q205.8438,638.0625 205.8438,639.3281 Q205.8438,641.3438 206.5625,642.3125 Q207.2813,643.2656 208.875,643.2656 Q209.4688,643.2656 210.0938,643.1094 Q210.7188,642.9531 211.5469,642.5781 L211.5469,644.7969 Q210.8125,645.1094 210.0156,645.2656 Q209.2344,645.4219 208.4688,645.4219 Z " fill="#000000"/><text fill="#000000" font-family="sans-serif" font-size="14" lengthAdjust="spacing" textLength="142" x="223" y="643.932">UnregisteredStudent</text><line style="stroke:#181818;stroke-width:0.5;" x1="195" x2="367" y1="654.5" y2="654.5"/><line style="stroke:#181818;stroke-width:0.5;" x1="195" x2="367" y1="662.5" y2="662.5"/></g><!--MD5=[db6d18d8099558415abc41d00477ab92]
class Admin--><g id="elem_Admin"><rect codeLine="49" fill="#F1F1F1" height="86.1358" id="Admin" rx="2.5" ry="2.5" style="stroke:#181818;stroke-width:0.5;" width="77" x="242.5" y="705.43"/><ellipse cx="257.95" cy="721.43" fill="#ADD1B2" rx="11" ry="11" style="stroke:#181818;stroke-width:1.0;"/><path d="M257.4188,728.3519 Q255.6688,728.3519 254.5281,727.6175 Q253.4031,726.8675 252.8406,725.5238 Q252.2938,724.1644 252.2938,722.3675 Q252.2938,720.3363 252.95,718.8831 Q253.6063,717.43 254.8875,716.6488 Q256.1688,715.8675 258.0438,715.8675 Q258.9344,715.8675 259.6063,716.055 Q260.2781,716.2269 260.9656,716.5706 L260.1531,718.5863 Q259.5281,718.2738 258.9813,718.1488 Q258.45,718.0238 257.9656,718.0238 Q256.7938,718.0238 256.0906,718.555 Q255.3875,719.0863 255.0906,720.0394 Q254.7938,720.9925 254.7938,722.2581 Q254.7938,724.2738 255.5125,725.2425 Q256.2313,726.1956 257.825,726.1956 Q258.4188,726.1956 259.0438,726.0394 Q259.6688,725.8831 260.4969,725.5081 L260.4969,727.7269 Q259.7625,728.0394 258.9656,728.1956 Q258.1844,728.3519 257.4188,728.3519 Z " fill="#000000"/><text fill="#000000" font-family="sans-serif" font-size="14" lengthAdjust="spacing" textLength="44" x="272.05" y="726.862">Admin</text><line style="stroke:#181818;stroke-width:0.5;" x1="243.5" x2="318.5" y1="737.43" y2="737.43"/><text fill="#000000" font-family="sans-serif" font-size="14" lengthAdjust="spacing" textLength="37" x="248.5" y="756.3959">email</text><text fill="#000000" font-family="sans-serif" font-size="14" lengthAdjust="spacing" textLength="65" x="248.5" y="775.4639">password</text><line style="stroke:#181818;stroke-width:0.5;" x1="243.5" x2="318.5" y1="783.5658" y2="783.5658"/></g><!--MD5=[6415063213547b35a52066d7b53eb916]
link User to Review--><g id="link_User_Review"><path codeLine="55" d="M107.35,425.54 C147.62,389.37 204.47,338.32 241.77,304.83 " fill="none" id="User-Review" style="stroke:#181818;stroke-width:1.0;"/><text fill="#000000" font-family="sans-serif" font-size="13" lengthAdjust="spacing" textLength="7" x="118.2066" y="425.9806">1</text><text fill="#000000" font-family="sans-serif" font-size="13" lengthAdjust="spacing" textLength="7" x="226.6246" y="326.9458">*</text></g><!--MD5=[0d84efd9d69e67356cb80d056b0e792a]
link Location to Tag--><g id="link_Location_Tag"><path codeLine="56" d="M539.9,248.96 C581.68,251.35 643.91,254.92 679.3,256.94 " fill="none" id="Location-Tag" style="stroke:#181818;stroke-width:1.0;"/><text fill="#000000" font-family="sans-serif" font-size="13" lengthAdjust="spacing" textLength="7" x="547.7975" y="266.941">*</text><text fill="#000000" font-family="sans-serif" font-size="13" lengthAdjust="spacing" textLength="7" x="664.1769" y="272.6971">*</text></g><!--MD5=[ce78769a676048c282b289fe9ccd2c35]
link Review to Location--><g id="link_Review_Location"><path codeLine="57" d="M320.08,266.21 C357.18,262.03 413.47,255.69 452.12,251.33 " fill="none" id="Review-Location" style="stroke:#181818;stroke-width:1.0;"/><text fill="#000000" font-family="sans-serif" font-size="13" lengthAdjust="spacing" textLength="7" x="328.6462" y="282.0736">*</text><text fill="#000000" font-family="sans-serif" font-size="13" lengthAdjust="spacing" textLength="7" x="436.9766" y="267.5379">1</text></g><!--MD5=[2a404b4f0b5a8bdb56a989fa9cf9e183]
link User to Achievement--><g id="link_User_Achievement"><path codeLine="58" d="M68.79,425.66 C84.23,364.64 120.97,253.19 194,190.5 C325.3,77.79 544.01,70.69 648.05,74.52 " fill="none" id="User-Achievement" style="stroke:#181818;stroke-width:1.0;"/><text fill="#000000" font-family="sans-serif" font-size="13" lengthAdjust="spacing" textLength="7" x="66.9674" y="413.5901">*</text><text fill="#000000" font-family="sans-serif" font-size="13" lengthAdjust="spacing" textLength="7" x="632.9845" y="89.0196">*</text></g><!--MD5=[6b2fe95e018bbb240da3fa5ecb04c314]
link Location to Achievement--><g id="link_Location_Achievement"><path codeLine="59" d="M539.9,212.1 C571.15,187.04 613.83,152.82 648.17,125.28 " fill="none" id="Location-Achievement" style="stroke:#181818;stroke-width:1.0;"/><text fill="#000000" font-family="sans-serif" font-size="13" lengthAdjust="spacing" textLength="7" x="547.7975" y="216.4889">*</text><text fill="#000000" font-family="sans-serif" font-size="13" lengthAdjust="spacing" textLength="7" x="633.1199" y="146.2832">*</text></g><!--MD5=[3036e4b88cd5c5e74aa60071cac41777]
link User to GPS--><g id="link_User_GPS"><path codeLine="60" d="M109.78,458.66 C134.98,454.05 166.01,448.84 194,445.5 C371.11,424.37 584.29,414.89 669.08,411.76 " fill="none" id="User-GPS" style="stroke:#181818;stroke-width:1.0;"/><text fill="#000000" font-family="sans-serif" font-size="13" lengthAdjust="spacing" textLength="7" x="118.0099" y="472.2208">*</text><text fill="#000000" font-family="sans-serif" font-size="13" lengthAdjust="spacing" textLength="7" x="654.089" y="427.5719">1</text></g><!--MD5=[ea5b3d2bd3cdce89d31b32d263432089]
link Location to GPS--><g id="link_Location_GPS"><path codeLine="61" d="M539.9,280.09 C577.97,309.89 633.02,352.98 669.27,381.35 " fill="none" id="Location-GPS" style="stroke:#181818;stroke-width:1.0;"/><text fill="#000000" font-family="sans-serif" font-size="13" lengthAdjust="spacing" textLength="7" x="547.7975" y="309.5502">1</text><text fill="#000000" font-family="sans-serif" font-size="13" lengthAdjust="spacing" textLength="7" x="654.0544" y="391.2377">1</text></g><!--MD5=[d7fbac072765759143d978ec605eb8f9]
reverse link User to RegisteredStudent--><g id="link_User_RegisteredStudent"><path codeLine="62" d="M130.3,486.8 C153.1,492.7 178.49,499.26 201.8,505.29 " fill="none" id="User-backto-RegisteredStudent" style="stroke:#181818;stroke-width:1.0;"/><polygon fill="none" points="128.89,493.67,111.28,481.89,132.39,480.11,128.89,493.67" style="stroke:#181818;stroke-width:1.0;"/></g><!--MD5=[b392b59d891ae3348c3ed7a680784bb0]
reverse link User to UnregisteredStudent--><g id="link_User_UnregisteredStudent"><path codeLine="63" d="M108.49,527.07 C132.43,553.27 162.77,583.22 194,605.5 C202.48,611.55 212,617.11 221.53,622.05 " fill="none" id="User-backto-UnregisteredStudent" style="stroke:#181818;stroke-width:1.0;"/><polygon fill="none" points="103.56,532.05,95.48,512.46,114.01,522.73,103.56,532.05" style="stroke:#181818;stroke-width:1.0;"/></g><!--MD5=[933987b91d2b08b1b4941f3221fa6cec]
reverse link User to Admin--><g id="link_User_Admin"><path codeLine="64" d="M88.59,530.55 C112.53,577.39 149.66,641.4 194,688.5 C207.98,703.35 226.18,716.69 242.25,727 " fill="none" id="User-backto-Admin" style="stroke:#181818;stroke-width:1.0;"/><polygon fill="none" points="82.34,533.7,79.68,512.67,94.87,527.45,82.34,533.7" style="stroke:#181818;stroke-width:1.0;"/></g><!--MD5=[f5a01da33587ee90c8b5098daf9d1abf]
@startuml study@
left to right direction

class User {
    username
    profilePicture
}

class Review {
    rating
    comment
}

class Location {
    name
    image
    address
    score
    schedule
    email
    phone
}

class Achievement {
    name
    time
    date 
    rarity
    level
}

class Tag {
    name 
}

class GPS {
    latitude
    longitude
}

class RegisteredStudent {
    university
    reviews
    email
    password
}

class UnregisteredStudent {}

class Admin {
    email
    password
}


User "1" - - "*" Review
Location "*" - - "*" Tag
Review "*" - - "1" Location
User "*" - - "*" Achievement
Location "*" - - "*" Achievement
User "*" - - "1" GPS
Location "1" - - "1" GPS
User <|- - RegisteredStudent
User <|- - UnregisteredStudent
User <|- - Admin


@enduml

PlantUML version 1.2022.7(Mon Aug 22 18:01:30 BST 2022)
(GPL source distribution)
Java Runtime: OpenJDK Runtime Environment
JVM: OpenJDK 64-Bit Server VM
Default Encoding: UTF-8
Language: en
Country: GB
--></g></svg>